<?xml version="1.0" encoding="utf-8"?>
<!-- Generator: Adobe Illustrator 27.6.1, SVG Export Plug-In . SVG Version: 6.00 Build 0)  -->
<svg version="1.1" xmlns="http://www.w3.org/2000/svg" xmlns:xlink="http://www.w3.org/1999/xlink" x="0px" y="0px"
	 viewBox="0 0 200 200" style="enable-background:new 0 0 200 200;" xml:space="preserve">
<style type="text/css">
	.st0{fill:none;stroke:#99989D;stroke-width:0.5;stroke-miterlimit:10;}
	.st1{fill:none;stroke:#99989D;stroke-width:0.75;stroke-miterlimit:10;}
	.st2{fill:#717175;}
	.st3{fill:none;stroke:#99989D;stroke-width:0.5043;stroke-miterlimit:10;}
	.st4{fill:none;stroke:#99989D;stroke-width:0.5038;stroke-miterlimit:10;}
	.st5{fill:#5AC891;}
	.st6{fill:#FFFFFF;}
	.st7{fill:#43EFB1;}
	.st8{fill:#333333;}
	.st9{opacity:0.12;clip-path:url(#SVGID_00000008141078005998126080000008453651813854937486_);}
	.st10{fill:url(#SVGID_00000021085511469450091750000005109911600174939056_);}
	.st11{fill:#EDCB03;stroke:#000000;stroke-width:0.5;stroke-miterlimit:10;}
	.st12{fill:#11357C;stroke:#000000;stroke-miterlimit:10;}
	.st13{fill:#C40540;stroke:#000000;stroke-width:4;stroke-miterlimit:10;}
	.st14{fill:#363636;}
</style>
<g id="Capa_1">
</g>
<g id="Capa_2">
	<g>
		<defs>
			<rect id="SVGID_1_" x="-1881.91" y="242.07" width="1422.69" height="675.15"/>
		</defs>
		<clipPath id="SVGID_00000181072337576053542840000012312391009054857139_">
			<use xlink:href="#SVGID_1_"  style="overflow:visible;"/>
		</clipPath>
		<g style="opacity:0.12;clip-path:url(#SVGID_00000181072337576053542840000012312391009054857139_);">
			<g>
			</g>
			<g>
				<g>
					<path class="st8" d="M11.69,0.68c-0.09,0.13-0.17,0.27-0.27,0.4L9.03,4.44c-8.48,11.89-18,23.03-28.45,33.32
						c9.73-2.18,19.35-4.81,28.86-7.9c3.68-1.45,6.24-5.59,5.89-9.55c-0.05,0.01-1.07-7.99-3.24-17.81
						C11.96,1.9,11.83,1.3,11.69,0.68z"/>
				</g>
			</g>
			<g>
				<g>
					<path class="st8" d="M49.12,102.58c5.93-5.69,11.31-11.9,16.06-18.56l1.24-1.74c2.12-2.97,0.58-7.11-3.01-8.12l-0.1-0.03
						c-9.07-2.56-18.37-4.2-27.77-4.9l-0.14-0.01c-3.71-0.28-6.57,3.08-5.61,6.58l0.4,1.47c2.21,8.07,5.19,15.92,8.9,23.46
						l0.52,1.05c1.62,3.29,6.08,4.08,8.73,1.54L49.12,102.58z"/>
					<path class="st8" d="M82.83,80.6c-0.09,0.13-0.17,0.27-0.27,0.4l-2.39,3.35c-8.48,11.89-18,23.03-28.45,33.32
						c9.73-2.18,19.35-4.81,28.86-7.9c3.68-1.45,6.24-5.59,5.89-9.55c-0.05,0.01-1.07-7.99-3.24-17.81
						C83.1,81.82,82.97,81.21,82.83,80.6z"/>
					<path class="st8" d="M76.58,65.31l0.2,0.06c0.89,0.25,1.72,0.61,2.47,1.04c-1.38-4.89-2.84-9.51-4.22-13.24c0,0,0,0,0,0
						c-1.51-3.68-5.69-6.19-9.63-5.77c-13.01,2.14-25.82,5.08-38.44,8.8C43.74,57.69,60.36,60.74,76.58,65.31z"/>
					<path class="st8" d="M30.97,118.53l-0.99-2.02c-6.84-13.89-12.39-28.33-16.57-43.16c2.55,14.23,6.07,28.23,10.57,41.99
						c1.39,3.47,5.17,5.92,8.91,5.88C32.13,120.46,31.48,119.56,30.97,118.53z"/>
				</g>
			</g>
			<g>
				<g>
					<path class="st8" d="M22.65,206.25c5.93-5.69,11.31-11.9,16.06-18.56l1.24-1.74c2.12-2.97,0.58-7.11-3.01-8.12l-0.1-0.03
						c-9.07-2.56-18.37-4.2-27.77-4.9l-0.14-0.01c-3.71-0.28-6.57,3.08-5.61,6.58l0.4,1.47c2.21,8.07,5.19,15.92,8.9,23.46
						l0.52,1.05c1.62,3.29,6.08,4.08,8.73,1.54L22.65,206.25z"/>
					<path class="st8" d="M56.37,184.27c-0.09,0.13-0.17,0.27-0.27,0.4l-2.39,3.35c-8.48,11.89-18,23.03-28.45,33.32
						c9.73-2.18,19.35-4.81,28.86-7.9c3.68-1.45,6.24-5.59,5.89-9.55c-0.05,0.01-1.07-7.99-3.24-17.81
						C56.64,185.49,56.51,184.88,56.37,184.27z"/>
					<path class="st8" d="M50.12,168.98l0.2,0.06c0.89,0.25,1.72,0.61,2.47,1.04c-1.38-4.89-2.84-9.51-4.22-13.24c0,0,0,0,0,0
						c-1.51-3.68-5.69-6.19-9.63-5.77c-13.01,2.14-25.82,5.08-38.44,8.8C17.28,161.36,33.9,164.4,50.12,168.98z"/>
					<path class="st8" d="M4.51,222.2l-0.99-2.02c-6.84-13.89-12.39-28.33-16.57-43.16c2.55,14.23,6.07,28.23,10.57,41.99
						c1.39,3.47,5.17,5.92,8.91,5.88C5.67,224.13,5.02,223.23,4.51,222.2z"/>
				</g>
			</g>
		</g>
	</g>
	<g>
		<path class="st7" d="M85.55,153.27c21.44-12.44,41.62-26.81,60.29-42.92l4.88-4.22c8.32-7.18,6.77-20.41-3.03-25.94l-0.28-0.16
			c-24.74-13.96-50.83-25.4-77.85-34.14l-0.39-0.13c-10.68-3.45-21.44,4.33-21.13,15.28l0.13,4.58c0.71,25.21,3.84,50.35,9.35,75.09
			l0.77,3.44c2.41,10.8,14.92,16.29,24.49,10.73L85.55,153.27z"/>
		<path class="st7" d="M200,112.91c-0.35,0.33-0.7,0.66-1.07,0.98l-9.4,8.12c-33.33,28.77-69.16,54.64-107.1,77.34
			c30.06,0.55,60.13-0.3,90.19-2.58c11.82-1.62,22.26-11.94,24.05-23.77c-0.14,0,2.55-24.18,3.19-54.48
			C199.92,116.68,199.96,114.8,200,112.91z"/>
		<path class="st7" d="M192.57,63.68l0.54,0.3c2.43,1.37,4.6,3,6.5,4.81c-0.56-15.31-1.55-29.89-2.93-41.79c0,0,0,0,0,0
			c-1.8-11.84-12.26-22.18-24.09-23.78c-39.63-3-79.26-3.53-118.88-1.62C101.81,17.92,148.32,38.7,192.57,63.68z"/>
		<path class="st7" d="M21.02,187.07l-1.47-6.62C9.41,134.89,3.47,88.62,1.78,42.19c-2.67,43.52-2.33,87.04,1.03,130.56
			c1.6,11.16,10.93,21.04,21.9,23.57C23.04,193.54,21.77,190.44,21.02,187.07z"/>
	</g>
</g>
</svg>
